<svg version="1" xmlns="http://www.w3.org/2000/svg" width="300" height="300" viewBox="0 0 225.000000 225.000000"><path d="M87.5 34.5C61.9 39.2 46 55.9 46 77.9c0 10.9 2 16.7 9.1 26 8.9 11.9 15.6 17.1 28.4 22.2 3.6 1.5 4.8 1.2-20.3 4-15.8 1.8-20.5 2.6-21.1 3.8-2.1 4 6.2 27.1 14.1 39.4 3.7 5.8 11.4 12.9 17.1 15.6 9.3 4.5 16.2 5.6 34.2 5.5 13.3 0 19.1-.5 26.9-2.2 18.1-3.9 32.1-12.3 40.7-24.5 7-10.1 9.4-17.8 9.4-30.7 0-10-.2-10.9-3.4-17.5-5.8-11.8-10.1-15.1-34.2-26.4l-8.2-3.9 3.9-.6c2.1-.3 11.6-1.3 20.9-2.1 9.4-.9 17.4-2 17.9-2.5 1.5-1.5-1.2-15-4.5-21.9-7.7-16.5-17.9-23-43.1-27.1-14.3-2.3-35.3-2.6-46.3-.5zM56.6 72.1c-.8 2.4-1.9 6.9-2.5 9.9l-1 5.5.5-5.5c.5-5.4 3.2-15.5 4-14.7.2.2-.2 2.3-1 4.8zm62.8.1c.8 1.3 1.9 4.2 2.5 6.4 1 3.6 1.7 4.4 5.9 6.3 5.3 2.4 3.8 2.3-9.3-.7-4.9-1.1-10.7-2.3-12.7-2.6-2.9-.5-3.8-1.2-3.8-2.7 0-5.2 4.8-8.8 11.7-8.9 3.3 0 4.6.5 5.7 2.2zm-64.7 19c-.3.8-.6.5-.6-.6-.1-1.1.2-1.7.5-1.3.3.3.4 1.2.1 1.9zm37.7 37.7c1.3.6 8.4 2.2 15.8 3.6 17 3.4 16.8 3.3 16.8 5.4 0 5.3-9.1 11-17.3 11.1-6.4 0-8.5-1.3-9.3-5.8-.4-2.4-2.5-5.8-5.6-9.5-5-5.7-5.1-6.5-.4-4.8zm-42.7 20.3c-.3.7-.5.2-.5-1.2s.2-1.9.5-1.3c.2.7.2 1.9 0 2.5zm90.5 1.5c-.3 1.6-.7 2.2-1 1.5-.4-1.3.4-4.2 1.1-4.2.2 0 .2 1.2-.1 2.7z"/></svg>